<!--?xml version="1.0" encoding="UTF-8"?-->
<svg width="625px" height="354px" viewBox="0 0 625 354" version="1.1" xmlns="http://www.w3.org/2000/svg" xmlns:xlink="http://www.w3.org/1999/xlink" style="">
    <!-- Generator: Sketch 50.2 (55047) - http://www.bohemiancoding.com/sketch -->
    <title>Group 4 Copy 2</title>
    <desc>Created with Sketch.</desc>
    <defs></defs>
    <g id="Page-1" stroke="none" stroke-width="1" fill="none" fill-rule="evenodd">
        <g id="Group-4-Copy-2">
            <path d="M312.5,354 C485.088984,354 625,177.5 625,177.5 C625,177.5 485.088984,1 312.5,1 C139.911016,1 0,177.5 0,177.5 C0,177.5 139.911016,354 312.5,354 Z" id="Oval" fill="#000000" class="qGjZCEsN_0"></path>
            <path id="Rectangle" stroke="#FFFFFF" width="282" height="211" d="M171.5 71.5 L453.5 71.5 L453.5 282.5 L171.5 282.5 Z" class="qGjZCEsN_1"></path>
            <path id="Rectangle" stroke="#FFFFFF" transform="translate(312.500000, 177.000000) rotate(-9.000000) translate(-312.500000, -177.000000) " width="282" height="211" d="M171.5 71.5 L453.5 71.5 L453.5 282.5 L171.5 282.5 Z" class="qGjZCEsN_2"></path>
            <path id="Rectangle" stroke="#FFFFFF" transform="translate(312.500000, 177.000000) rotate(-15.000000) translate(-312.500000, -177.000000) " width="282" height="211" d="M171.5 71.5 L453.5 71.5 L453.5 282.5 L171.5 282.5 Z" class="qGjZCEsN_3"></path>
            <path id="Rectangle" stroke="#FFFFFF" transform="translate(312.500000, 177.000000) rotate(-21.000000) translate(-312.500000, -177.000000) " width="282" height="211" d="M171.5 71.5 L453.5 71.5 L453.5 282.5 L171.5 282.5 Z" class="qGjZCEsN_4"></path>
            <path id="Rectangle" stroke="#FFFFFF" transform="translate(312.500000, 177.000000) rotate(-27.000000) translate(-312.500000, -177.000000) " width="282" height="211" d="M171.5 71.5 L453.5 71.5 L453.5 282.5 L171.5 282.5 Z" class="qGjZCEsN_5"></path>
            <path id="Rectangle" stroke="#FFFFFF" transform="translate(312.500000, 177.000000) rotate(-33.000000) translate(-312.500000, -177.000000) " width="282" height="211" d="M171.5 71.5 L453.5 71.5 L453.5 282.5 L171.5 282.5 Z" class="qGjZCEsN_6"></path>
            <path id="Rectangle" stroke="#FFFFFF" transform="translate(312.500000, 177.000000) rotate(-39.000000) translate(-312.500000, -177.000000) " width="282" height="211" d="M171.5 71.5 L453.5 71.5 L453.5 282.5 L171.5 282.5 Z" class="qGjZCEsN_7"></path>
            <path id="Rectangle" stroke="#FFFFFF" transform="translate(312.500000, 177.000000) rotate(-45.000000) translate(-312.500000, -177.000000) " width="282" height="211" d="M171.5 71.5 L453.5 71.5 L453.5 282.5 L171.5 282.5 Z" class="qGjZCEsN_8"></path>
            <path id="Rectangle" stroke="#FFFFFF" transform="translate(312.500000, 177.000000) rotate(-51.000000) translate(-312.500000, -177.000000) " width="282" height="211" d="M171.5 71.5 L453.5 71.5 L453.5 282.5 L171.5 282.5 Z" class="qGjZCEsN_9"></path>
            <path id="Rectangle" stroke="#FFFFFF" transform="translate(312.500000, 177.000000) rotate(-58.000000) translate(-312.500000, -177.000000) " width="282" height="211" d="M171.5 71.5 L453.5 71.5 L453.5 282.5 L171.5 282.5 Z" class="qGjZCEsN_10"></path>
            <path id="Rectangle" stroke="#FFFFFF" transform="translate(312.500000, 177.000000) rotate(-64.000000) translate(-312.500000, -177.000000) " width="282" height="211" d="M171.5 71.5 L453.5 71.5 L453.5 282.5 L171.5 282.5 Z" class="qGjZCEsN_11"></path>
            <path id="Rectangle" stroke="#FFFFFF" transform="translate(312.500000, 177.000000) rotate(-69.000000) translate(-312.500000, -177.000000) " width="282" height="211" d="M171.5 71.5 L453.5 71.5 L453.5 282.5 L171.5 282.5 Z" class="qGjZCEsN_12"></path>
            <path id="Rectangle" stroke="#FFFFFF" transform="translate(312.500000, 177.000000) rotate(-75.000000) translate(-312.500000, -177.000000) " width="282" height="211" d="M171.5 71.5 L453.5 71.5 L453.5 282.5 L171.5 282.5 Z" class="qGjZCEsN_13"></path>
            <path id="Rectangle" stroke="#FFFFFF" transform="translate(312.500000, 177.000000) rotate(-81.000000) translate(-312.500000, -177.000000) " width="282" height="211" d="M171.5 71.5 L453.5 71.5 L453.5 282.5 L171.5 282.5 Z" class="qGjZCEsN_14"></path>
            <path id="Rectangle" stroke="#FFFFFF" transform="translate(312.500000, 177.000000) rotate(-86.000000) translate(-312.500000, -177.000000) " width="282" height="211" d="M171.5 71.5 L453.5 71.5 L453.5 282.5 L171.5 282.5 Z" class="qGjZCEsN_15"></path>
            <path id="Rectangle" stroke="#FFFFFF" transform="translate(312.500000, 177.000000) rotate(-91.000000) translate(-312.500000, -177.000000) " width="282" height="211" d="M171.5 71.5 L453.5 71.5 L453.5 282.5 L171.5 282.5 Z" class="qGjZCEsN_16"></path>
            <path id="Rectangle" stroke="#FFFFFF" transform="translate(312.500000, 177.000000) rotate(-98.000000) translate(-312.500000, -177.000000) " width="282" height="211" d="M171.5 71.5 L453.5 71.5 L453.5 282.5 L171.5 282.5 Z" class="qGjZCEsN_17"></path>
            <path id="Rectangle" stroke="#FFFFFF" transform="translate(312.500000, 177.000000) rotate(-103.000000) translate(-312.500000, -177.000000) " width="282" height="211" d="M171.5 71.5 L453.5 71.5 L453.5 282.5 L171.5 282.5 Z" class="qGjZCEsN_18"></path>
            <path id="Rectangle" stroke="#FFFFFF" transform="translate(312.500000, 177.000000) rotate(-111.000000) translate(-312.500000, -177.000000) " width="282" height="211" d="M171.5 71.5 L453.5 71.5 L453.5 282.5 L171.5 282.5 Z" class="qGjZCEsN_19"></path>
            <path id="Rectangle" stroke="#FFFFFF" transform="translate(312.500000, 177.000000) rotate(-118.000000) translate(-312.500000, -177.000000) " width="282" height="211" d="M171.5 71.5 L453.5 71.5 L453.5 282.5 L171.5 282.5 Z" class="qGjZCEsN_20"></path>
            <path id="Rectangle" stroke="#FFFFFF" transform="translate(312.500000, 177.000000) rotate(-125.000000) translate(-312.500000, -177.000000) " width="282" height="211" d="M171.5 71.5 L453.5 71.5 L453.5 282.5 L171.5 282.5 Z" class="qGjZCEsN_21"></path>
            <path id="Rectangle" stroke="#FFFFFF" transform="translate(312.500000, 177.000000) rotate(-131.000000) translate(-312.500000, -177.000000) " width="282" height="211" d="M171.5 71.5 L453.5 71.5 L453.5 282.5 L171.5 282.5 Z" class="qGjZCEsN_22"></path>
            <path id="Rectangle" stroke="#FFFFFF" transform="translate(312.500000, 177.000000) rotate(-137.000000) translate(-312.500000, -177.000000) " width="282" height="211" d="M171.5 71.5 L453.5 71.5 L453.5 282.5 L171.5 282.5 Z" class="qGjZCEsN_23"></path>
            <path id="Rectangle" stroke="#FFFFFF" transform="translate(312.500000, 177.000000) rotate(-142.000000) translate(-312.500000, -177.000000) " width="282" height="211" d="M171.5 71.5 L453.5 71.5 L453.5 282.5 L171.5 282.5 Z" class="qGjZCEsN_24"></path>
            <path id="Rectangle" stroke="#FFFFFF" transform="translate(312.500000, 177.000000) rotate(211.000000) translate(-312.500000, -177.000000) " width="282" height="211" d="M171.5 71.5 L453.5 71.5 L453.5 282.5 L171.5 282.5 Z" class="qGjZCEsN_25"></path>
            <path id="Rectangle" stroke="#FFFFFF" transform="translate(312.500000, 177.000000) rotate(205.000000) translate(-312.500000, -177.000000) " width="282" height="211" d="M171.5 71.5 L453.5 71.5 L453.5 282.5 L171.5 282.5 Z" class="qGjZCEsN_26"></path>
            <path id="Rectangle" stroke="#FFFFFF" transform="translate(312.500000, 177.000000) rotate(198.000000) translate(-312.500000, -177.000000) " width="282" height="211" d="M171.5 71.5 L453.5 71.5 L453.5 282.5 L171.5 282.5 Z" class="qGjZCEsN_27"></path>
            <path id="Rectangle" stroke="#FFFFFF" transform="translate(312.500000, 177.000000) rotate(192.000000) translate(-312.500000, -177.000000) " width="282" height="211" d="M171.5 71.5 L453.5 71.5 L453.5 282.5 L171.5 282.5 Z" class="qGjZCEsN_28"></path>
            <path id="Rectangle" stroke="#FFFFFF" transform="translate(312.500000, 177.000000) rotate(187.000000) translate(-312.500000, -177.000000) " width="282" height="211" d="M171.5 71.5 L453.5 71.5 L453.5 282.5 L171.5 282.5 Z" class="qGjZCEsN_29"></path>
            <path id="Rectangle" stroke="#FFFFFF" transform="translate(312.500000, 177.000000) rotate(182.000000) translate(-312.500000, -177.000000) " width="282" height="211" d="M171.5 71.5 L453.5 71.5 L453.5 282.5 L171.5 282.5 Z" class="qGjZCEsN_30"></path>
            <path id="Rectangle" stroke="#FFFFFF" transform="translate(312.500000, 177.000000) rotate(175.000000) translate(-312.500000, -177.000000) " width="282" height="211" d="M171.5 71.5 L453.5 71.5 L453.5 282.5 L171.5 282.5 Z" class="qGjZCEsN_31"></path>
        </g>
    </g>
<style data-made-with="vivus-instant">.qGjZCEsN_0{stroke-dasharray:1479 1481;stroke-dashoffset:1480;animation:qGjZCEsN_draw 2000ms ease-in-out 0ms forwards;}.qGjZCEsN_1{stroke-dasharray:986 988;stroke-dashoffset:987;animation:qGjZCEsN_draw 2000ms ease-in-out 32ms forwards;}.qGjZCEsN_2{stroke-dasharray:986 988;stroke-dashoffset:987;animation:qGjZCEsN_draw 2000ms ease-in-out 64ms forwards;}.qGjZCEsN_3{stroke-dasharray:986 988;stroke-dashoffset:987;animation:qGjZCEsN_draw 2000ms ease-in-out 96ms forwards;}.qGjZCEsN_4{stroke-dasharray:986 988;stroke-dashoffset:987;animation:qGjZCEsN_draw 2000ms ease-in-out 129ms forwards;}.qGjZCEsN_5{stroke-dasharray:986 988;stroke-dashoffset:987;animation:qGjZCEsN_draw 2000ms ease-in-out 161ms forwards;}.qGjZCEsN_6{stroke-dasharray:986 988;stroke-dashoffset:987;animation:qGjZCEsN_draw 2000ms ease-in-out 193ms forwards;}.qGjZCEsN_7{stroke-dasharray:986 988;stroke-dashoffset:987;animation:qGjZCEsN_draw 2000ms ease-in-out 225ms forwards;}.qGjZCEsN_8{stroke-dasharray:986 988;stroke-dashoffset:987;animation:qGjZCEsN_draw 2000ms ease-in-out 258ms forwards;}.qGjZCEsN_9{stroke-dasharray:986 988;stroke-dashoffset:987;animation:qGjZCEsN_draw 2000ms ease-in-out 290ms forwards;}.qGjZCEsN_10{stroke-dasharray:986 988;stroke-dashoffset:987;animation:qGjZCEsN_draw 2000ms ease-in-out 322ms forwards;}.qGjZCEsN_11{stroke-dasharray:986 988;stroke-dashoffset:987;animation:qGjZCEsN_draw 2000ms ease-in-out 354ms forwards;}.qGjZCEsN_12{stroke-dasharray:986 988;stroke-dashoffset:987;animation:qGjZCEsN_draw 2000ms ease-in-out 387ms forwards;}.qGjZCEsN_13{stroke-dasharray:986 988;stroke-dashoffset:987;animation:qGjZCEsN_draw 2000ms ease-in-out 419ms forwards;}.qGjZCEsN_14{stroke-dasharray:986 988;stroke-dashoffset:987;animation:qGjZCEsN_draw 2000ms ease-in-out 451ms forwards;}.qGjZCEsN_15{stroke-dasharray:986 988;stroke-dashoffset:987;animation:qGjZCEsN_draw 2000ms ease-in-out 483ms forwards;}.qGjZCEsN_16{stroke-dasharray:986 988;stroke-dashoffset:987;animation:qGjZCEsN_draw 2000ms ease-in-out 516ms forwards;}.qGjZCEsN_17{stroke-dasharray:986 988;stroke-dashoffset:987;animation:qGjZCEsN_draw 2000ms ease-in-out 548ms forwards;}.qGjZCEsN_18{stroke-dasharray:986 988;stroke-dashoffset:987;animation:qGjZCEsN_draw 2000ms ease-in-out 580ms forwards;}.qGjZCEsN_19{stroke-dasharray:986 988;stroke-dashoffset:987;animation:qGjZCEsN_draw 2000ms ease-in-out 612ms forwards;}.qGjZCEsN_20{stroke-dasharray:986 988;stroke-dashoffset:987;animation:qGjZCEsN_draw 2000ms ease-in-out 645ms forwards;}.qGjZCEsN_21{stroke-dasharray:986 988;stroke-dashoffset:987;animation:qGjZCEsN_draw 2000ms ease-in-out 677ms forwards;}.qGjZCEsN_22{stroke-dasharray:986 988;stroke-dashoffset:987;animation:qGjZCEsN_draw 2000ms ease-in-out 709ms forwards;}.qGjZCEsN_23{stroke-dasharray:986 988;stroke-dashoffset:987;animation:qGjZCEsN_draw 2000ms ease-in-out 741ms forwards;}.qGjZCEsN_24{stroke-dasharray:986 988;stroke-dashoffset:987;animation:qGjZCEsN_draw 2000ms ease-in-out 774ms forwards;}.qGjZCEsN_25{stroke-dasharray:986 988;stroke-dashoffset:987;animation:qGjZCEsN_draw 2000ms ease-in-out 806ms forwards;}.qGjZCEsN_26{stroke-dasharray:986 988;stroke-dashoffset:987;animation:qGjZCEsN_draw 2000ms ease-in-out 838ms forwards;}.qGjZCEsN_27{stroke-dasharray:986 988;stroke-dashoffset:987;animation:qGjZCEsN_draw 2000ms ease-in-out 870ms forwards;}.qGjZCEsN_28{stroke-dasharray:986 988;stroke-dashoffset:987;animation:qGjZCEsN_draw 2000ms ease-in-out 903ms forwards;}.qGjZCEsN_29{stroke-dasharray:986 988;stroke-dashoffset:987;animation:qGjZCEsN_draw 2000ms ease-in-out 935ms forwards;}.qGjZCEsN_30{stroke-dasharray:986 988;stroke-dashoffset:987;animation:qGjZCEsN_draw 2000ms ease-in-out 967ms forwards;}.qGjZCEsN_31{stroke-dasharray:986 988;stroke-dashoffset:987;animation:qGjZCEsN_draw 2000ms ease-in-out 1000ms forwards;}@keyframes qGjZCEsN_draw{100%{stroke-dashoffset:0;}}@keyframes qGjZCEsN_fade{0%{stroke-opacity:1;}94.44444444444444%{stroke-opacity:1;}100%{stroke-opacity:0;}}</style></svg>